<svg width="64" height="64" viewBox="0 0 64 64" fill="none" xmlns="http://www.w3.org/2000/svg">
<path d="M32 0C14.3555 0 0 14.3555 0 32C0 49.6445 14.3555 64 32 64C49.6445 64 64 49.6445 64 32C64 14.3555 49.6445 0 32 0ZM32 61.5391C15.7148 61.5391 2.46094 48.2852 2.46094 32C2.46094 15.7148 15.7148 2.46094 32 2.46094C48.2852 2.46094 61.5391 15.7148 61.5391 32C61.5391 48.2852 48.2852 61.5391 32 61.5391Z" fill="black"/>
<path d="M47.3828 30.7695H33.2305V17.2305C33.2305 16.5508 32.6797 16 32 16C31.3203 16 30.7695 16.5508 30.7695 17.2305V30.7695H16.6172C15.9375 30.7695 15.3828 31.3203 15.3828 32C15.3828 32.6797 15.9375 33.2305 16.6172 33.2305H30.7695V48C30.7695 48.6797 31.3203 49.2305 32 49.2305C32.6797 49.2305 33.2305 48.6797 33.2305 48V33.2305H47.3828C48.0625 33.2305 48.6172 32.6797 48.6172 32C48.6172 31.3203 48.0625 30.7695 47.3828 30.7695Z" fill="black"/>
</svg>
