<svg width="64" height="64" viewBox="0 0 64 64" fill="none" xmlns="http://www.w3.org/2000/svg">
<path d="M32 0C14.3555 0 0 14.3555 0 32C0 49.6445 14.3555 64 32 64C49.6445 64 64 49.6445 64 32C64 14.3555 49.6445 0 32 0ZM47.3828 34.4609H34.4609V48C34.4609 49.3594 33.3594 50.4609 32 50.4609C30.6406 50.4609 29.5391 49.3594 29.5391 48V34.4609H16.6172C15.2578 34.4609 14.1523 33.3594 14.1523 32C14.1523 30.6406 15.2578 29.5391 16.6172 29.5391H29.5391V17.2305C29.5391 15.8711 30.6406 14.7695 32 14.7695C33.3594 14.7695 34.4609 15.8711 34.4609 17.2305V29.5391H47.3828C48.7422 29.5391 49.8477 30.6406 49.8477 32C49.8477 33.3594 48.7422 34.4609 47.3828 34.4609Z" fill="black"/>
</svg>
